<?xml version="1.0" encoding="utf-8"?>
<!-- Generator: Adobe Illustrator 18.1.1, SVG Export Plug-In . SVG Version: 6.00 Build 0)  -->
<svg version="1.1" id="Layer_1" xmlns="http://www.w3.org/2000/svg" xmlns:xlink="http://www.w3.org/1999/xlink" x="0px" y="0px"
	 viewBox="0 0 342.7 69.3" enable-background="new 0 0 342.7 69.3" xml:space="preserve">
<g>
	<g>
		<defs>
			<circle id="SVGID_15_" cx="21.9" cy="24.8" r="17.2"/>
		</defs>
		<use xlink:href="#SVGID_15_"  overflow="visible" fill="#FFFFFF"/>
		<clipPath id="SVGID_2_">
			<use xlink:href="#SVGID_15_"  overflow="visible"/>
		</clipPath>
		<g opacity="0.5" clip-path="url(#SVGID_2_)">
			<polyline fill="#FFF98B" points="3.1,14.8 22.3,23 22.3,26.2 2.8,36.4 			"/>
		</g>
		<g opacity="0.5" clip-path="url(#SVGID_2_)">
			<polyline fill="#FFF98B" points="41.4,14.8 22.3,23 22.3,26.2 41.8,36.4 			"/>
		</g>
	</g>
	<g>
		<path d="M28.1,30.6v1.8H15.9v-1.8H28.1 M28.1,28.6H15.9c-1.1,0-2,0.9-2,2v1.8c0,1.1,0.9,2,2,2h12.3c1.1,0,2-0.9,2-2v-1.8
			C30.1,29.5,29.2,28.6,28.1,28.6L28.1,28.6z"/>
	</g>
	<g>
		<path d="M22,14.9l6,4.1H16.1L22,14.9 M22,12.9c-0.4,0-0.8,0.1-1.1,0.4l-6,4.1c-0.7,0.5-1,1.4-0.8,2.2c0.3,0.8,1,1.4,1.9,1.4H28
			c0.9,0,1.6-0.6,1.9-1.4c0.3-0.8-0.1-1.7-0.8-2.2l-6-4.1C22.8,13,22.4,12.9,22,12.9L22,12.9z"/>
	</g>
	<g>
		<path d="M24.7,32.4h-5.3c-1,0-1.8,0.7-2,1.7l-3.2,19.8c-0.1,0.6,0.1,1.2,0.4,1.6c0.4,0.4,0.9,0.7,1.5,0.7h11.7
			c0.6,0,1.1-0.3,1.5-0.7c0.4-0.4,0.5-1,0.4-1.6l-3.2-19.8C26.5,33.1,25.6,32.4,24.7,32.4L24.7,32.4z"/>
		<g id="XMLID_5_">
			<g>
				<polygon fill="#FFFFFF" points="24.7,34.4 27.9,54.2 16.1,54.2 19.3,34.4 				"/>
			</g>
		</g>
	</g>
	<g>
		<path d="M30.9,54.2H13.1c-1.1,0-2,0.9-2,2v2.4c0,1.1,0.9,2,2,2h17.8c1.1,0,2-0.9,2-2v-2.4C32.9,55.1,32,54.2,30.9,54.2L30.9,54.2z
			"/>
		<g id="XMLID_4_">
			<g>
				<rect x="13.1" y="56.2" fill="#FFFFFF" width="17.8" height="2.4"/>
			</g>
		</g>
	</g>
	<g>
		<path d="M22.1,27.5c-1.5,0-2.7-1.2-2.7-2.7c0-1.5,1.2-2.7,2.7-2.7s2.7,1.2,2.7,2.7C24.8,26.3,23.6,27.5,22.1,27.5z M22.1,23.7
			c-0.6,0-1,0.5-1,1c0,0.6,0.5,1,1,1c0.6,0,1-0.5,1-1C23.1,24.2,22.6,23.7,22.1,23.7z"/>
	</g>
	<g>
		<g>
			<polygon points="16,55 22.3,55 22.3,34 19.2,34 			"/>
		</g>
	</g>
</g>
<g>
	<path d="M48.8,31.1h6.5v23.5h14.6v5.9H48.8V31.1z"/>
	<path d="M75.1,31.1h6.5v29.3h-6.5V31.1z"/>
	<path d="M87.6,45.8L87.6,45.8c0-8.4,6.5-15.3,15.4-15.3c5.3,0,8.5,1.4,11.5,4l-4.1,4.9c-2.3-1.9-4.3-3-7.7-3
		c-4.7,0-8.4,4.1-8.4,9.1v0.1c0,5.4,3.7,9.3,8.9,9.3c2.3,0,4.4-0.6,6.1-1.8v-4.2h-6.5v-5.6h12.7v12.7c-3,2.6-7.2,4.7-12.5,4.7
		C93.9,60.9,87.6,54.5,87.6,45.8z"/>
	<path d="M121.7,31.1h6.5v11.6h11.9V31.1h6.5v29.3h-6.5V48.6h-11.9v11.8h-6.5V31.1z"/>
	<path d="M161.3,37h-8.9v-6h24.3v6h-8.9v23.4h-6.5V37z"/>
	<path d="M181.6,31.1h6.5v11.6H200V31.1h6.5v29.3H200V48.6h-11.9v11.8h-6.5V31.1z"/>
	<path d="M212.2,45.8L212.2,45.8c0-8.4,6.6-15.3,15.6-15.3c9.1,0,15.6,6.7,15.6,15.1v0.1c0,8.3-6.6,15.2-15.6,15.2
		C218.7,60.9,212.2,54.2,212.2,45.8z M236.6,45.8L236.6,45.8c0-5.1-3.7-9.3-8.9-9.3c-5.2,0-8.8,4.1-8.8,9.1v0.1c0,5,3.7,9.2,8.9,9.2
		C233,55,236.6,50.9,236.6,45.8z"/>
	<path d="M248.6,47.8V31.1h6.5v16.6c0,4.8,2.4,7.3,6.3,7.3s6.3-2.4,6.3-7V31.1h6.5v16.6c0,8.9-5,13.2-12.9,13.2
		C253.4,60.9,248.6,56.5,248.6,47.8z"/>
	<path d="M278.8,56.1l3.8-4.6c2.6,2.2,5.4,3.6,8.8,3.6c2.6,0,4.2-1,4.2-2.8v-0.1c0-1.6-1-2.5-5.9-3.7c-5.9-1.5-9.7-3.1-9.7-9v-0.1
		c0-5.3,4.3-8.8,10.3-8.8c4.3,0,7.9,1.3,10.9,3.7l-3.4,4.9c-2.6-1.8-5.2-2.9-7.6-2.9s-3.8,1.1-3.8,2.6V39c0,1.9,1.3,2.6,6.3,3.9
		c6,1.6,9.3,3.7,9.3,8.8v0.1c0,5.8-4.4,9.1-10.8,9.1C286.8,60.8,282.3,59.3,278.8,56.1z"/>
	<path d="M307.6,31.1h22.1v5.7H314v6h13.8v5.7H314v6.2H330v5.7h-22.3V31.1z"/>
</g>
</svg>
